<svg width="48" height="48" viewBox="0 0 48 48" fill="none" xmlns="http://www.w3.org/2000/svg">
<rect width="48" height="48" rx="24" fill="#FF5A1F" fill-opacity="0.08"/>
<path d="M14.5723 17.357C14.5723 16.6182 14.8658 15.9096 15.3882 15.3872C15.9106 14.8648 16.6192 14.5713 17.358 14.5713H30.6437C31.3825 14.5713 32.0911 14.8648 32.6135 15.3872C33.1359 15.9096 33.4294 16.6182 33.4294 17.357V30.6427C33.4294 31.3815 33.1359 32.0901 32.6135 32.6125C32.0911 33.1349 31.3825 33.4284 30.6437 33.4284H17.358C16.6192 33.4284 15.9106 33.1349 15.3882 32.6125C14.8658 32.0901 14.5723 31.3815 14.5723 30.6427V17.357ZM24.4294 18.6427C24.4294 18.4722 24.3617 18.3087 24.2411 18.1881C24.1206 18.0676 23.957 17.9999 23.7866 17.9999C23.6161 17.9999 23.4525 18.0676 23.332 18.1881C23.2114 18.3087 23.1437 18.4722 23.1437 18.6427V24.6427C23.1437 24.9976 23.4317 25.2856 23.7866 25.2856H28.5008C28.6713 25.2856 28.8348 25.2178 28.9554 25.0973C29.076 24.9767 29.1437 24.8132 29.1437 24.6427C29.1437 24.4722 29.076 24.3087 28.9554 24.1881C28.8348 24.0676 28.6713 23.9999 28.5008 23.9999H24.4294V18.6427Z" fill="#FF5A1F"/>
</svg>
