<svg width="48" height="48" viewBox="0 0 48 48" fill="none" xmlns="http://www.w3.org/2000/svg">
<rect width="48" height="48" rx="24" fill="#FF5A1F" fill-opacity="0.08"/>
<g clip-path="url(#clip0_187_5837)">
<path d="M24 12C25.1016 12 26.1641 12.1406 27.1875 12.4219C28.2109 12.7031 29.1641 13.1094 30.0469 13.6406C30.9297 14.1719 31.7383 14.7969 32.4727 15.5156C33.207 16.2344 33.8359 17.043 34.3594 17.9414C34.8828 18.8398 35.2852 19.7969 35.5664 20.8125C35.8477 21.8281 35.9922 22.8906 36 24C36 25.1016 35.8594 26.1641 35.5781 27.1875C35.2969 28.2109 34.8906 29.1641 34.3594 30.0469C33.8281 30.9297 33.2031 31.7383 32.4844 32.4727C31.7656 33.207 30.957 33.8359 30.0586 34.3594C29.1602 34.8828 28.2031 35.2852 27.1875 35.5664C26.1719 35.8477 25.1094 35.9922 24 36C22.8984 36 21.8359 35.8594 20.8125 35.5781C19.7891 35.2969 18.8359 34.8906 17.9531 34.3594C17.0703 33.8281 16.2617 33.2031 15.5273 32.4844C14.793 31.7656 14.1641 30.957 13.6406 30.0586C13.1172 29.1602 12.7148 28.2031 12.4336 27.1875C12.1523 26.1719 12.0078 25.1094 12 24C12 22.8984 12.1406 21.8359 12.4219 20.8125C12.7031 19.7891 13.1094 18.8359 13.6406 17.9531C14.1719 17.0703 14.7969 16.2617 15.5156 15.5273C16.2344 14.793 17.043 14.1641 17.9414 13.6406C18.8398 13.1172 19.7969 12.7148 20.8125 12.4336C21.8281 12.1523 22.8906 12.0078 24 12ZM31.0664 20.0273L29.4727 18.4336L21.75 26.1562L18.5273 22.9336L16.9336 24.5273L21.75 29.3438L31.0664 20.0273Z" fill="#FF5A1F"/>
</g>
<defs>
<clipPath id="clip0_187_5837">
<rect width="24" height="24" fill="white" transform="translate(12 12)"/>
</clipPath>
</defs>
</svg>
