<svg width="48" height="48" viewBox="0 0 48 48" fill="none" xmlns="http://www.w3.org/2000/svg">
<rect width="48" height="48" rx="24" fill="#FF5A1F" fill-opacity="0.08"/>
<path d="M16.0007 32C15.5841 32 15.2841 31.8167 15.1007 31.45C14.9174 31.0833 14.9507 30.7333 15.2007 30.4L20.0007 24L15.2007 17.6C14.9507 17.2667 14.9174 16.9167 15.1007 16.55C15.2841 16.1833 15.5841 16 16.0007 16H27.0007C27.3174 16 27.6174 16.0707 27.9007 16.212C28.1841 16.3533 28.4174 16.5493 28.6007 16.8L32.8007 22.375C32.9841 22.6083 32.9757 22.8543 32.7757 23.113C32.5757 23.3717 32.3174 23.434 32.0007 23.3C31.7174 23.2 31.3884 23.125 31.0137 23.075C30.6391 23.025 30.3014 23 30.0007 23C28.0674 23 26.4174 23.6833 25.0507 25.05C23.6841 26.4167 23.0007 28.0667 23.0007 30C23.0007 30.15 23.0051 30.3 23.0137 30.45C23.0224 30.6 23.0347 30.7417 23.0507 30.875C23.0841 31.175 23.0091 31.4377 22.8257 31.663C22.6424 31.8883 22.4091 32.0007 22.1257 32H16.0007ZM30.0007 35C28.6174 35 27.4384 34.5123 26.4637 33.537C25.4891 32.5617 25.0014 31.3827 25.0007 30C25.0001 28.6173 25.4877 27.4383 26.4637 26.463C27.4397 25.4877 28.6187 25 30.0007 25C31.3827 25 32.5621 25.4877 33.5387 26.463C34.5154 27.4383 35.0027 28.6173 35.0007 30C34.9987 31.3827 34.5111 32.562 33.5377 33.538C32.5644 34.514 31.3854 35.0013 30.0007 35ZM29.9757 31.55L32.2257 29.325C32.3757 29.175 32.4507 29 32.4507 28.8C32.4507 28.6 32.3757 28.425 32.2257 28.275C32.0757 28.125 31.9007 28.0543 31.7007 28.063C31.5007 28.0717 31.3257 28.1423 31.1757 28.275L29.2757 30.125L28.8257 29.675C28.6757 29.525 28.5007 29.4543 28.3007 29.463C28.1007 29.4717 27.9257 29.5507 27.7757 29.7C27.6424 29.85 27.5717 30.025 27.5637 30.225C27.5557 30.425 27.6264 30.6 27.7757 30.75L28.5757 31.55C28.7757 31.75 29.0091 31.85 29.2757 31.85C29.5424 31.85 29.7757 31.75 29.9757 31.55Z" fill="#FF5A1F"/>
</svg>
