<svg width="48" height="48" viewBox="0 0 48 48" fill="none" xmlns="http://www.w3.org/2000/svg">
<rect width="48" height="48" rx="24" fill="#FF5A1F" fill-opacity="0.08"/>
<g clip-path="url(#clip0_187_5829)">
<path d="M22.63 26.1C23.3993 24.4107 24.8081 23.0962 26.5465 22.4455C28.2849 21.7948 30.2105 21.8611 31.9 22.63C33.5893 23.3993 34.9038 24.8081 35.5545 26.5465C36.2052 28.2849 36.1389 30.2105 35.37 31.9C34.8155 33.1241 33.9196 34.1621 32.7896 34.8893C31.6596 35.6166 30.3438 36.0023 29 36C26.3 36 23.83 34.44 22.67 32H13V30C13.06 28.86 13.84 27.93 15.34 27.18C16.84 26.43 18.72 26.04 21 26C21.57 26 22.11 26.05 22.63 26.1ZM21 16C22.12 16.03 23.06 16.42 23.81 17.17C24.56 17.92 24.93 18.86 24.93 20C24.93 21.14 24.56 22.08 23.81 22.83C23.06 23.58 22.12 23.95 21 23.95C19.88 23.95 18.94 23.58 18.19 22.83C17.44 22.08 17.07 21.14 17.07 20C17.07 18.86 17.44 17.92 18.19 17.17C18.94 16.42 19.88 16.03 21 16ZM29 34C30.3261 34 31.5979 33.4732 32.5355 32.5355C33.4732 31.5979 34 30.3261 34 29C34 27.6739 33.4732 26.4021 32.5355 25.4645C31.5979 24.5268 30.3261 24 29 24C27.6739 24 26.4021 24.5268 25.4645 25.4645C24.5268 26.4021 24 27.6739 24 29C24 30.3261 24.5268 31.5979 25.4645 32.5355C26.4021 33.4732 27.6739 34 29 34ZM28 26H29.5V28.82L31.94 30.23L31.19 31.53L28 29.69V26Z" fill="#FF5A1F"/>
</g>
<defs>
<clipPath id="clip0_187_5829">
<rect width="24" height="24" fill="white" transform="translate(12 12)"/>
</clipPath>
</defs>
</svg>
