<svg width="24" height="25" viewBox="0 0 24 25" fill="none" xmlns="http://www.w3.org/2000/svg">
<path d="M19.9009 13.1604C19.7406 12.9779 19.6521 12.7433 19.6521 12.5004C19.6521 12.2575 19.7406 12.0229 19.9009 11.8404L21.1809 10.4004C21.3219 10.2431 21.4095 10.0451 21.4311 9.83489C21.4526 9.62469 21.407 9.41307 21.3009 9.23038L19.3009 5.77038C19.1958 5.5879 19.0358 5.44326 18.8436 5.35707C18.6515 5.27088 18.437 5.24754 18.2309 5.29038L16.3509 5.67038C16.1117 5.71981 15.8626 5.67997 15.6508 5.55838C15.4389 5.43679 15.2789 5.24187 15.2009 5.01038L14.5909 3.18038C14.5238 2.98176 14.396 2.80925 14.2255 2.68723C14.055 2.5652 13.8505 2.49984 13.6409 2.50038H9.64087C9.42281 2.489 9.20701 2.54931 9.02644 2.6721C8.84587 2.79489 8.71045 2.9734 8.64087 3.18038L8.08087 5.01038C8.00287 5.24187 7.84284 5.43679 7.63099 5.55838C7.41913 5.67997 7.17009 5.71981 6.93087 5.67038L5.00087 5.29038C4.80542 5.26276 4.60617 5.29361 4.42822 5.37902C4.25027 5.46444 4.10157 5.60061 4.00087 5.77038L2.00087 9.23038C1.89203 9.41103 1.84309 9.62147 1.86106 9.83161C1.87902 10.0417 1.96296 10.2408 2.10087 10.4004L3.37087 11.8404C3.53119 12.0229 3.61961 12.2575 3.61961 12.5004C3.61961 12.7433 3.53119 12.9779 3.37087 13.1604L2.10087 14.6004C1.96296 14.7599 1.87902 14.959 1.86106 15.1692C1.84309 15.3793 1.89203 15.5897 2.00087 15.7704L4.00087 19.2304C4.10597 19.4129 4.26599 19.5575 4.45812 19.6437C4.65026 19.7299 4.8647 19.7532 5.07087 19.7104L6.95087 19.3304C7.19009 19.281 7.43913 19.3208 7.65099 19.4424C7.86284 19.564 8.02287 19.7589 8.10087 19.9904L8.71087 21.8204C8.78045 22.0274 8.91587 22.2059 9.09644 22.3287C9.27701 22.4515 9.49281 22.5118 9.71087 22.5004H13.7109C13.9205 22.5009 14.125 22.4356 14.2955 22.3135C14.466 22.1915 14.5938 22.019 14.6609 21.8204L15.2709 19.9904C15.3489 19.7589 15.5089 19.564 15.7208 19.4424C15.9326 19.3208 16.1817 19.281 16.4209 19.3304L18.3009 19.7104C18.507 19.7532 18.7215 19.7299 18.9136 19.6437C19.1058 19.5575 19.2658 19.4129 19.3709 19.2304L21.3709 15.7704C21.477 15.5877 21.5226 15.3761 21.5011 15.1659C21.4795 14.9557 21.3919 14.7577 21.2509 14.6004L19.9009 13.1604ZM18.4109 14.5004L19.2109 15.4004L17.9309 17.6204L16.7509 17.3804C16.0307 17.2332 15.2814 17.3555 14.6455 17.7242C14.0095 18.0929 13.531 18.6822 13.3009 19.3804L12.9209 20.5004H10.3609L10.0009 19.3604C9.77073 18.6622 9.29225 18.0729 8.65628 17.7042C8.0203 17.3355 7.27109 17.2132 6.55087 17.3604L5.37087 17.6004L4.07087 15.3904L4.87087 14.4904C5.36283 13.9404 5.6348 13.2283 5.6348 12.4904C5.6348 11.7525 5.36283 11.0404 4.87087 10.4904L4.07087 9.59038L5.35087 7.39038L6.53087 7.63038C7.25109 7.77761 8.0003 7.65526 8.63628 7.28658C9.27225 6.9179 9.75073 6.32854 9.98087 5.63038L10.3609 4.50038H12.9209L13.3009 5.64038C13.531 6.33854 14.0095 6.9279 14.6455 7.29658C15.2814 7.66526 16.0307 7.78761 16.7509 7.64038L17.9309 7.40038L19.2109 9.62038L18.4109 10.5204C17.9244 11.0691 17.6558 11.7771 17.6558 12.5104C17.6558 13.2437 17.9244 13.9516 18.4109 14.5004ZM11.6409 8.50038C10.8497 8.50038 10.0764 8.73498 9.41859 9.17451C8.76079 9.61403 8.24811 10.2387 7.94535 10.9696C7.6426 11.7006 7.56339 12.5048 7.71773 13.2807C7.87207 14.0567 8.25304 14.7694 8.81245 15.3288C9.37186 15.8882 10.0846 16.2692 10.8605 16.4235C11.6364 16.5779 12.4407 16.4987 13.1716 16.1959C13.9025 15.8932 14.5272 15.3805 14.9668 14.7227C15.4063 14.0649 15.6409 13.2915 15.6409 12.5004C15.6409 11.4395 15.2194 10.4221 14.4693 9.67196C13.7192 8.92181 12.7017 8.50038 11.6409 8.50038ZM11.6409 14.5004C11.2453 14.5004 10.8586 14.3831 10.5297 14.1633C10.2008 13.9436 9.94449 13.6312 9.79311 13.2657C9.64174 12.9003 9.60213 12.4982 9.6793 12.1102C9.75647 11.7222 9.94695 11.3659 10.2267 11.0862C10.5064 10.8065 10.8627 10.616 11.2507 10.5388C11.6387 10.4616 12.0408 10.5012 12.4062 10.6526C12.7717 10.804 13.084 11.0603 13.3038 11.3892C13.5236 11.7181 13.6409 12.1048 13.6409 12.5004C13.6409 13.0308 13.4302 13.5395 13.0551 13.9146C12.68 14.2897 12.1713 14.5004 11.6409 14.5004Z" fill="black" fill-opacity="0.6"/>
</svg>
