<svg width="63" height="63" viewBox="0 0 63 63" fill="none" xmlns="http://www.w3.org/2000/svg">
<path d="M31.8452 43.3947V36.8652" stroke="#FF5A1F" stroke-width="4" stroke-linecap="round" stroke-linejoin="round"/>
<path fill-rule="evenodd" clip-rule="evenodd" d="M47.7885 14.1924C52.138 14.1924 55.6382 17.7183 55.6382 22.0679V30.9213C49.3069 34.6274 40.9425 36.8665 31.8316 36.8665C22.7208 36.8665 14.382 34.6274 8.05078 30.9213V22.0421C8.05078 17.6926 11.5767 14.1924 15.9263 14.1924H47.7885Z" stroke="#FF5A1F" stroke-width="4" stroke-linecap="round" stroke-linejoin="round"/>
<path d="M40.8527 14.1806V13.2386C40.8527 10.0987 38.3048 7.55078 35.1649 7.55078H28.5248C25.3849 7.55078 22.8369 10.0987 22.8369 13.2386V14.1806" stroke="#FF5A1F" stroke-width="4" stroke-linecap="round" stroke-linejoin="round"/>
<path d="M8.11377 40.3223L8.6002 46.7796C8.92963 51.1317 12.5559 54.4955 16.9183 54.4955H46.7705C51.1329 54.4955 54.7592 51.1317 55.0887 46.7796L55.5751 40.3223" stroke="#FF5A1F" stroke-width="4" stroke-linecap="round" stroke-linejoin="round"/>
</svg>
