<svg width="41" height="40" viewBox="0 0 41 40" fill="none" xmlns="http://www.w3.org/2000/svg">
<g clip-path="url(#clip0_525_2237)">
<path d="M33.5895 8.65883C31.6582 8.33851 29.6866 8.01819 27.7552 7.69787C23.9328 7.01719 18.5814 5.97615 11.7412 4.65483C9.36724 4.17435 7.19448 3.57375 5.2229 2.81299" stroke="#3CB4E6" stroke-width="0.183534" stroke-miterlimit="5.32"/>
<path d="M37.2108 13.1833C35.199 12.8229 33.1872 12.3424 31.1351 11.9821C25.1399 10.901 18.8228 9.77987 13.1495 8.57867C12.5057 8.45855 11.8217 8.29839 11.1779 8.17827C8.643 7.73782 5.14244 7.13722 1.8833 6.4165" stroke="#3F9DD5" stroke-width="0.183534" stroke-miterlimit="5.32"/>
<path d="M39.0617 16.7867C37.6131 16.7867 36.2049 16.6265 34.7966 16.4263C32.2617 16.0259 29.7268 15.6655 27.2322 15.1851" stroke="#448ECC" stroke-width="0.183534" stroke-miterlimit="5.32"/>
<path d="M8.76378 12.5826C7.47622 12.3423 6.22889 12.062 4.98156 11.8218C3.89518 11.6216 2.84904 11.3413 1.8029 11.061C1.48101 10.981 1.03841 10.9009 0.475098 10.8608" stroke="#457EBF" stroke-width="0.183534" stroke-miterlimit="5.32"/>
<path d="M0.475201 10.9009C0.475201 10.8608 0.475201 10.8208 0.434965 10.7808C0.434965 10.7808 0.434965 10.7407 0.394729 10.7407C0.354492 10.7407 0.354492 10.7407 0.354492 10.7407" stroke="#3EA9DE" stroke-width="0.183534" stroke-miterlimit="5.32"/>
<path d="M3.13062 18.1084C3.89511 19.0694 4.74007 19.9102 5.70574 20.671" stroke="#4A82CB" stroke-width="0.183534" stroke-miterlimit="5.32"/>
<path d="M5.66576 20.7104C4.05631 20.9106 2.44685 20.9907 0.837402 20.9507" stroke="#40A5DD" stroke-width="0.183534" stroke-miterlimit="5.32"/>
<path d="M40.2284 20.1904L36.8083 20.3906" stroke="#4299D4" stroke-width="0.183534" stroke-miterlimit="5.32"/>
<path d="M36.8083 20.3903C36.4462 20.0299 36.0439 19.6295 35.6415 19.3092C34.3539 18.3082 33.0261 17.4673 31.6581 16.7866C30.8534 16.3862 29.8877 16.0659 28.8416 15.7456" stroke="#5067BA" stroke-width="0.183534" stroke-miterlimit="5.32"/>
<path d="M7.71756 19.2696C6.1081 19.0694 4.69983 18.6289 3.13062 18.1084" stroke="#5157AD" stroke-width="0.183534" stroke-miterlimit="5.32"/>
<path d="M3.13065 18.1081C2.0845 16.8268 1.32001 15.4254 0.837178 13.8238C0.756705 13.5035 0.676232 13.1031 0.59576 12.5826C0.515287 11.8218 0.434814 11.2612 0.434814 10.9009" stroke="#4195D0" stroke-width="0.183534" stroke-miterlimit="5.32"/>
<path d="M13.3105 24.6348C11.862 25.2354 10.3733 25.6358 8.8443 25.876C7.03367 26.1563 5.26327 26.4766 3.45264 26.837" stroke="#4E7DC8" stroke-width="0.183534" stroke-miterlimit="5.32"/>
<path d="M12.5057 24.274C11.8619 24.1139 11.1779 23.8736 10.4536 23.5533C9.24656 22.9927 8.11994 22.4322 7.0738 21.7515C6.59096 21.4312 6.14836 21.0708 5.66553 20.7104" stroke="#5067BA" stroke-width="0.183534" stroke-miterlimit="5.32"/>
<path d="M36.8083 20.3901C37.9752 21.5113 38.9006 22.8326 39.5847 24.3141" stroke="#4C76C3" stroke-width="0.183534" stroke-miterlimit="5.32"/>
<path d="M39.5848 24.3145C37.6132 24.3545 35.6818 24.7149 33.7505 25.1953" stroke="#6751BB" stroke-width="0.183534" stroke-miterlimit="5.32"/>
<path d="M40.5101 29.3995C40.5101 29.0792 40.5101 28.7589 40.5101 28.4786C40.5101 28.1583 40.5101 27.878 40.4699 27.5977C40.3492 26.4366 40.0675 25.3555 39.5444 24.3145" stroke="#5983D6" stroke-width="0.183534" stroke-miterlimit="5.32"/>
<path d="M40.4699 29.7998C38.5385 30.0801 37.09 30.3203 36.1244 30.6006C34.0321 31.1612 32.9457 31.4414 32.9457 31.4414C30.7729 32.002 29.083 32.3223 25.7836 33.003C24.3753 33.2833 23.3694 33.4434 21.9612 33.6837C19.7482 34.044 17.6961 34.6446 15.4831 35.4454C14.5979 35.7658 13.8334 36.0861 13.1494 36.4064" stroke="#825CD5" stroke-width="0.183534" stroke-miterlimit="5.32"/>
<path d="M6.71167 31.1212C9.28679 30.4005 11.4193 29.96 13.753 29.3995C15.2418 29.0391 17.0122 28.4385 18.179 28.1582C18.9033 27.958 19.9092 27.7178 21.1565 27.4775" stroke="#6567CA" stroke-width="0.183534" stroke-miterlimit="5.32"/>
<path d="M33.5895 8.6586C31.6582 8.33828 29.6866 8.01796 27.7552 7.69764C23.9328 7.01696 18.5814 5.97592 11.7412 4.6546C9.36724 4.17412 7.19448 3.57352 5.2229 2.81276C7.19448 1.41136 9.40748 0.570516 11.7814 0.210156C14.0347 -0.110165 16.2879 -0.0701245 18.5411 0.370316C20.9553 0.850796 23.289 1.61156 25.502 2.73268C28.56 4.29424 31.2558 6.2562 33.5895 8.6586Z" fill="#3AC0EE"/>
<path d="M5.22311 2.81299C7.19469 3.57375 9.36745 4.21439 11.7414 4.65483C18.5816 5.97615 23.933 7.01719 27.7554 7.69787C29.6868 8.05823 31.6584 8.33851 33.5897 8.65883C34.9577 10.0602 36.1246 11.5417 37.1707 13.1834C35.1589 12.823 33.1471 12.3425 31.0951 11.9822C25.0999 10.9011 18.7827 9.77995 13.1094 8.57875C12.4656 8.45863 11.7816 8.29847 11.1378 8.17835C8.60296 7.73791 5.1024 7.13731 1.84326 6.41659C2.72846 5.01519 3.85508 3.81399 5.22311 2.81299Z" fill="#3DA8DD"/>
<path d="M37.211 13.1828C37.9352 14.3039 38.5388 15.5051 39.1021 16.7463C37.6536 16.7463 36.2453 16.5862 34.837 16.386C32.3021 15.9856 29.7672 15.6252 27.2726 15.1447C25.0596 14.384 22.8466 13.5832 20.6738 12.8224C18.9437 12.2218 17.5756 11.7013 16.61 11.3409C14.7993 10.6202 12.4254 10.5401 10.5745 11.3409C9.8905 11.6212 9.28695 12.0617 8.76388 12.6222C7.47632 12.382 6.22899 12.1017 4.98167 11.8615C3.89529 11.6613 2.84914 11.381 1.803 11.1007C1.48111 11.0206 1.03851 10.9405 0.475201 10.9005C0.475201 10.8605 0.475201 10.8204 0.434965 10.7804C0.434965 10.7804 0.434965 10.7403 0.394729 10.7403C0.354492 10.7403 0.354492 10.7403 0.354492 10.7403C0.59591 9.21882 1.11898 7.81742 1.88347 6.45605C5.14261 7.17678 8.64317 7.73734 11.1781 8.21782C11.8218 8.33794 12.5059 8.45806 13.1496 8.61822C18.823 9.81942 25.1401 10.9405 31.1353 12.0216C33.1471 12.382 35.1589 12.8224 37.211 13.1828Z" fill="#4192CD"/>
<path d="M8.76373 12.5826C7.19451 14.2242 6.83239 16.5065 7.47617 18.6686C7.55664 18.8688 7.59688 19.069 7.67735 19.3093C6.0679 19.1091 4.65963 18.6686 3.09041 18.1481C2.0845 16.8268 1.32001 15.4254 0.837178 13.8238C0.756705 13.5035 0.676232 13.1031 0.59576 12.5826C0.515287 11.8218 0.434814 11.2612 0.434814 10.9009C0.998123 10.9409 1.44072 11.021 1.76261 11.1011C2.80876 11.3413 3.89514 11.6216 4.94128 11.8618C6.26908 12.062 7.51641 12.3423 8.76373 12.5826Z" fill="#4869B1"/>
<path d="M0.475098 10.9006C0.475098 11.261 0.515335 11.8216 0.636044 12.5823C0.716516 13.1028 0.796989 13.5032 0.877462 13.8236C1.3603 15.3851 2.12479 16.8266 3.1307 18.1078C3.89519 19.0688 4.74015 19.9096 5.70582 20.6704C4.09637 20.8706 2.48691 20.9507 0.877462 20.9107C0.0727353 18.1479 -0.168683 15.305 0.112972 12.4222C0.193444 11.7815 0.273917 11.221 0.394626 10.7405C0.394626 10.7004 0.434862 10.7004 0.434862 10.7405C0.434862 10.7405 0.475098 10.7405 0.475098 10.7805C0.475098 10.8206 0.475098 10.8606 0.475098 10.9006Z" fill="#3AC0EE"/>
<path d="M39.0617 16.7867C39.5445 17.9078 39.9469 19.0289 40.2285 20.2301L36.8084 20.4303C36.4463 20.0699 36.0439 19.6695 35.6416 19.3492C34.354 18.3482 33.0262 17.5074 31.6582 16.8267C30.8534 16.4263 29.8878 16.106 28.8416 15.7857L27.2322 15.145C29.7268 15.6255 32.2617 15.9859 34.7966 16.3863C36.2049 16.6265 37.6131 16.7466 39.0617 16.7867Z" fill="#468ACB"/>
<path d="M36.8084 20.3903C37.9753 21.5114 38.9007 22.8327 39.5847 24.3142C37.6131 24.3542 35.6818 24.7146 33.7505 25.1951C34.1528 23.7937 34.0723 22.4323 33.5895 21.0309C32.986 19.3892 32.0203 18.0279 30.6523 16.9468C30.4511 16.7866 30.1292 16.5864 29.7671 16.3062C29.4854 16.106 29.1635 15.9058 28.8416 15.7056C29.8878 16.0259 30.8132 16.3462 31.6582 16.7466C33.0664 17.4273 34.3942 18.2681 35.6416 19.2691C36.0439 19.6295 36.4463 20.0299 36.8084 20.3903ZM7.71756 19.2691C8.56252 21.1911 9.93055 22.7126 11.7412 23.7937C11.9826 23.9538 12.2643 24.114 12.5459 24.2741C11.9021 24.114 11.2181 23.8737 10.4939 23.5534C9.28677 22.9929 8.16015 22.4323 7.11401 21.7516C6.63117 21.4313 6.18858 21.0709 5.70574 20.7106C4.74007 19.9498 3.89511 19.109 3.13062 18.148C4.69983 18.6685 6.1081 19.109 7.71756 19.2691Z" fill="#5A44A8"/>
<path d="M40.2286 20.1904C40.8322 22.4327 41.0334 24.6349 40.9127 26.8771C40.8724 27.5978 40.7517 28.4387 40.5103 29.3996C40.5103 29.0793 40.5103 28.759 40.5103 28.4787C40.5103 28.1584 40.5103 27.8781 40.4701 27.5978C40.3493 26.4367 40.0677 25.3556 39.5446 24.3146C38.8606 22.8331 37.9352 21.5518 36.7683 20.3906L40.2286 20.1904Z" fill="#3DA8DD"/>
<path d="M12.5059 24.2745L13.3107 24.5948C11.8622 25.1954 10.3734 25.5958 8.84443 25.8361C7.03379 26.1163 5.2634 26.4367 3.45276 26.797C2.32615 24.9552 1.44095 22.9932 0.837402 20.9111C2.44685 20.9512 4.05631 20.8711 5.66576 20.6709C6.10836 21.0313 6.5912 21.4317 7.07403 21.7119C8.12018 22.3526 9.24679 22.9532 10.4539 23.5137C11.1781 23.8741 11.8622 24.1143 12.5059 24.2745Z" fill="#468ACB"/>
<path d="M39.5847 24.3145C40.1078 25.3955 40.3492 26.4366 40.5102 27.5977C40.5504 27.878 40.5504 28.1583 40.5504 28.4786C40.5504 28.7589 40.5504 29.0792 40.5504 29.3995C40.5906 29.4796 40.5504 29.6398 40.5102 29.7999C38.5788 30.0802 37.1303 30.3205 36.1646 30.6007C34.0724 31.1613 32.986 31.4416 32.986 31.4416C30.8132 32.0021 29.1233 32.3225 25.8239 33.0031C24.4156 33.2834 23.4097 33.4436 22.0015 33.6838C19.7885 34.0442 17.7364 34.6448 15.5234 35.4456C14.6382 35.7659 13.8737 36.0862 13.1897 36.4065C10.7755 34.9651 8.64301 33.2033 6.71167 31.1613C9.28679 30.4406 11.4193 30.0001 13.753 29.4396C15.2418 29.0792 17.0122 28.4786 18.179 28.1983C18.9033 27.9981 19.9092 27.7579 21.1565 27.5177C22.4441 27.9981 24.0133 28.5987 25.0192 28.879C26.0653 29.1993 27.1115 29.3195 28.1174 29.2394C30.612 29.0792 32.986 27.6378 33.7505 25.1953C35.6818 24.7149 37.6132 24.3545 39.5847 24.3145Z" fill="#745ECE"/>
<path d="M13.3105 24.6348L21.1566 27.4776C19.9093 27.7178 18.9436 27.9581 18.1791 28.1583C17.0123 28.4786 15.2016 29.0392 13.7531 29.3995C11.4194 29.9601 9.2869 30.4406 6.71178 31.1213C5.46445 29.7999 4.37807 28.3585 3.45264 26.7969C5.22303 26.4366 7.03367 26.1162 8.8443 25.836C10.3733 25.6358 11.862 25.1953 13.3105 24.6348Z" fill="#5670C5"/>
<path d="M40.4699 29.7998C40.0273 31.8819 39.1019 33.6837 37.6936 35.2853C35.4806 37.7277 32.3019 39.2493 29.1233 39.7698C23.6914 40.6507 17.8973 39.2493 13.1897 36.4064C13.8335 36.0861 14.6382 35.7257 15.5234 35.4454C17.6962 34.6847 19.7885 34.0841 22.0014 33.6837C23.4097 33.4434 24.4559 33.2833 25.8239 33.003C29.1233 32.3223 30.8132 32.002 32.986 31.4414C33.0262 31.4414 34.0723 31.1612 36.1646 30.6006C37.0901 30.3604 38.5386 30.0801 40.4699 29.7998Z" fill="#8F59DC"/>
</g>
<defs>
<clipPath id="clip0_525_2237">
<rect width="41" height="40" fill="white"/>
</clipPath>
</defs>
</svg>
